<?xml version="1.0" encoding="UTF-8"?><svg xmlns="http://www.w3.org/2000/svg" viewBox="0 0 34.02 34.02"><defs><style>.d{fill:#eb5755;}.e{fill:#fff;}</style></defs><g id="a"/><g id="b"><g id="c"><path class="d" d="M17.01,34.02c9.39,0,17.01-7.61,17.01-17.01S26.4,0,17.01,0,0,7.62,0,17.01s7.62,17.01,17.01,17.01"/><path class="e" d="M17.01,8.46c-4.7,0-8.5,3.81-8.5,8.5,0,3.48,2.09,6.47,5.09,7.79-.02-.59,0-1.31,.15-1.95,.16-.69,1.09-4.63,1.09-4.63,0,0-.27-.54-.27-1.35,0-1.26,.73-2.2,1.64-2.2,.77,0,1.15,.58,1.15,1.28,0,.78-.5,1.94-.75,3.02-.21,.9,.45,1.64,1.34,1.64,1.61,0,2.7-2.07,2.7-4.52,0-1.86-1.26-3.26-3.54-3.26-2.58,0-4.19,1.92-4.19,4.07,0,.74,.22,1.26,.56,1.67,.16,.19,.18,.26,.12,.47-.04,.16-.13,.53-.17,.68-.06,.22-.23,.29-.43,.21-1.19-.49-1.74-1.79-1.74-3.25,0-2.42,2.04-5.31,6.08-5.31,3.25,0,5.38,2.35,5.38,4.87,0,3.34-1.85,5.83-4.59,5.83-.92,0-1.78-.5-2.08-1.06,0,0-.49,1.96-.6,2.34-.18,.66-.53,1.31-.86,1.82,.76,.23,1.57,.35,2.41,.35,4.7,0,8.5-3.81,8.5-8.5s-3.81-8.5-8.5-8.5"/></g></g></svg>