<?xml version="1.0" encoding="UTF-8"?><svg xmlns="http://www.w3.org/2000/svg" viewBox="0 0 34.02 34.02"><defs><style>.d{fill:#fff;}.e{fill:#79ccf0;}</style></defs><g id="a"/><g id="b"><g id="c"><path class="e" d="M17.01,34.02c9.39,0,17.01-7.61,17.01-17.01S26.4,0,17.01,0,0,7.62,0,17.01s7.61,17.01,17.01,17.01"/><path class="d" d="M25.54,12.55c-.63,.28-1.3,.47-2.01,.55,.72-.43,1.28-1.12,1.54-1.93-.68,.4-1.42,.69-2.22,.85-.64-.68-1.55-1.1-2.55-1.1-1.93,0-3.49,1.57-3.49,3.5,0,.27,.03,.54,.09,.8-2.9-.15-5.48-1.54-7.2-3.65-.3,.52-.47,1.12-.47,1.76,0,1.21,.62,2.28,1.56,2.91-.57-.02-1.11-.18-1.58-.44v.04c0,1.69,1.2,3.11,2.8,3.43-.29,.08-.6,.12-.92,.12-.23,0-.44-.02-.66-.06,.44,1.39,1.73,2.4,3.26,2.43-1.2,.94-2.7,1.5-4.34,1.5-.28,0-.56-.02-.83-.05,1.55,.99,3.38,1.57,5.36,1.57,6.43,0,9.94-5.33,9.94-9.94,0-.15,0-.3,0-.45,.68-.49,1.28-1.11,1.74-1.81"/></g></g></svg>